<svg width="15" height="14" viewBox="0 0 15 14" fill="none" xmlns="http://www.w3.org/2000/svg">
<path d="M9.09 1.5L10.4625 3H13.5V12H1.5V3H4.5375L5.91 1.5H9.09ZM9.75 0H5.25L3.8775 1.5H1.5C0.675 1.5 0 2.175 0 3V12C0 12.825 0.675 13.5 1.5 13.5H13.5C14.325 13.5 15 12.825 15 12V3C15 2.175 14.325 1.5 13.5 1.5H11.1225L9.75 0ZM7.5 5.25C8.7375 5.25 9.75 6.2625 9.75 7.5C9.75 8.7375 8.7375 9.75 7.5 9.75C6.2625 9.75 5.25 8.7375 5.25 7.5C5.25 6.2625 6.2625 5.25 7.5 5.25ZM7.5 3.75C5.43 3.75 3.75 5.43 3.75 7.5C3.75 9.57 5.43 11.25 7.5 11.25C9.57 11.25 11.25 9.57 11.25 7.5C11.25 5.43 9.57 3.75 7.5 3.75Z" fill="#1C1C1C"/>
</svg>
