<svg width="78" height="78" viewBox="0 0 78 78" fill="none" xmlns="http://www.w3.org/2000/svg">
<path d="M45.0004 2.33558L37.6689 17.0839C37.505 17.4569 37.245 17.7797 36.9155 18.0193C36.586 18.259 36.1988 18.4068 35.7934 18.4479L19.5106 20.9202C19.0451 20.9807 18.6065 21.1725 18.246 21.4733C17.8855 21.774 17.6181 22.1711 17.475 22.6182C17.332 23.0653 17.3192 23.5439 17.4381 23.998C17.557 24.4522 17.8028 24.863 18.1467 25.1826L30.1669 36.6062C30.3461 36.948 30.4398 37.3283 30.4398 37.7144C30.4398 38.1004 30.3461 38.4807 30.1669 38.8226L27.8652 55.0202C27.7669 55.4883 27.8067 55.9749 27.9795 56.421C28.1524 56.867 28.4509 57.2534 28.839 57.5331C29.227 57.8129 29.6879 57.974 30.1657 57.9971C30.6435 58.0202 31.1178 57.9041 31.5309 57.6629L46.0234 49.9904C46.3985 49.8209 46.8053 49.7332 47.2169 49.7332C47.6285 49.7332 48.0353 49.8209 48.4104 49.9904L62.9027 57.6629C63.3163 57.9041 63.7906 58.0202 64.2682 57.9971C64.7457 57.974 65.2068 57.8129 65.595 57.5331C65.9826 57.2534 66.2815 56.867 66.4544 56.421C66.6273 55.9749 66.6666 55.4883 66.5684 55.0202L63.8407 38.8226C63.7235 38.4467 63.7007 38.0476 63.7754 37.6608C63.8495 37.2741 64.0186 36.9117 64.2669 36.6062L76.2869 25.0974C76.6061 24.7744 76.8297 24.3699 76.9342 23.9282C77.0381 23.4865 77.019 23.0246 76.8778 22.5932C76.7372 22.1617 76.4801 21.7774 76.1355 21.4823C75.7904 21.1872 75.3711 20.9927 74.9234 20.9202L58.6404 18.5331C58.235 18.4921 57.8479 18.3442 57.5184 18.1046C57.1888 17.865 56.9289 17.5422 56.7649 17.1691L49.4334 2.42089C49.2372 2.00334 48.9281 1.64912 48.5412 1.39806C48.1542 1.14707 47.7046 1.00932 47.2434 1.00046C46.7822 0.991602 46.3278 1.11192 45.9313 1.3479C45.5349 1.58382 45.2125 1.92594 45.0004 2.33558Z" stroke="black" stroke-width="2" stroke-linecap="round" stroke-linejoin="round"/>
<path d="M1 51.6664L13.6667 38.9998" stroke="black" stroke-width="2" stroke-linecap="round" stroke-linejoin="round"/>
<path d="M35.8335 77.0006L48.5001 64.3339" stroke="black" stroke-width="2" stroke-linecap="round" stroke-linejoin="round"/>
<path d="M1.00049 76.9997L16.8338 61.1664" stroke="black" stroke-width="2" stroke-linecap="round" stroke-linejoin="round"/>
</svg>
