<svg width="40" height="40" viewBox="0 0 40 40" fill="none" xmlns="http://www.w3.org/2000/svg">
<path d="M36.9778 7.11111H25.6V2.84444C25.5986 2.09067 25.2985 1.36676 24.7652 0.833423C24.2332 0.301511 23.5093 0.0014228 22.7556 0H2.84444C2.09067 0.0014228 1.36676 0.30009 0.833423 0.833423C0.30009 1.36676 0.0014228 2.09067 0 2.84444V36.9778C0.0014228 37.7316 0.301511 38.4555 0.833423 38.9874C1.36676 39.5207 2.09067 39.8208 2.84444 39.8222H36.9778C37.7316 39.8208 38.454 39.5207 38.9874 38.9874C39.5207 38.454 39.8208 37.7316 39.8222 36.9778V9.95555C39.8208 9.20178 39.5207 8.47787 38.9874 7.94453C38.4555 7.41262 37.7316 7.11253 36.9778 7.11111ZM15.6444 36.9778H9.95555V29.8667H15.6444V36.9778ZM22.7556 36.9778H18.4889V29.8667C18.4875 29.1129 18.1874 28.389 17.654 27.8571C17.1221 27.3237 16.3982 27.0236 15.6444 27.0222H9.95555C9.20178 27.0236 8.47787 27.3237 7.94453 27.8571C7.41262 28.389 7.11253 29.1129 7.11111 29.8667V36.9778H2.84444L2.84302 2.84444H22.7556V36.9778ZM36.9778 36.9778H25.6V9.95555H36.9778V36.9778ZM32.7111 19.9111C32.7111 20.1927 32.6272 20.4672 32.4708 20.7019C32.3157 20.9351 32.0924 21.1172 31.8336 21.2252C31.5733 21.3333 31.2875 21.3604 31.0116 21.3063C30.7356 21.2508 30.4825 21.1157 30.2834 20.9166C30.0843 20.7175 29.9492 20.4644 29.8937 20.1884C29.8396 19.9125 29.8667 19.6267 29.9748 19.3664C30.0828 19.1076 30.2649 18.8843 30.4981 18.7292C30.7328 18.5728 31.0073 18.4889 31.2889 18.4889C31.6658 18.4889 32.0284 18.6382 32.2944 18.9056C32.5618 19.1716 32.7111 19.5342 32.7111 19.9111ZM29.8667 14.2222C29.8667 13.9406 29.9506 13.6661 30.107 13.4315C30.262 13.1982 30.4853 13.0162 30.7442 12.9081C31.0044 12.8 31.2903 12.773 31.5662 12.827C31.8421 12.8825 32.0953 13.0176 32.2944 13.2167C32.4935 13.4158 32.6286 13.669 32.6841 13.9449C32.7381 14.2208 32.7111 14.5067 32.603 14.7669C32.4949 15.0258 32.3129 15.2491 32.0796 15.4041C31.845 15.5605 31.5705 15.6444 31.2889 15.6444C30.912 15.6444 30.5493 15.4951 30.2834 15.2277C30.016 14.9618 29.8667 14.5991 29.8667 14.2222ZM18.4889 19.9111C18.4889 20.1927 18.405 20.4672 18.2485 20.7019C18.0935 20.9351 17.8702 21.1172 17.6114 21.2252C17.3511 21.3333 17.0652 21.3604 16.7893 21.3063C16.5134 21.2508 16.2603 21.1157 16.0612 20.9166C15.862 20.7175 15.7269 20.4644 15.6715 20.1884C15.6174 19.9125 15.6444 19.6267 15.7525 19.3664C15.8606 19.1076 16.0427 18.8843 16.2759 18.7292C16.5106 18.5728 16.7851 18.4889 17.0667 18.4889C17.4436 18.4889 17.8062 18.6382 18.0722 18.9056C18.3396 19.1716 18.4889 19.5342 18.4889 19.9111ZM18.4889 14.2222C18.4889 14.5038 18.405 14.7783 18.2485 15.013C18.0935 15.2462 17.8702 15.4283 17.6114 15.5364C17.3511 15.6444 17.0652 15.6715 16.7893 15.6174C16.5134 15.562 16.2603 15.4268 16.0612 15.2277C15.862 15.0286 15.7269 14.7755 15.6715 14.4996C15.6174 14.2236 15.6444 13.9378 15.7525 13.6775C15.8606 13.4187 16.0427 13.1954 16.2759 13.0404C16.5106 12.8839 16.7851 12.8 17.0667 12.8C17.4436 12.8 17.8062 12.9493 18.0722 13.2167C18.3396 13.4827 18.4889 13.8453 18.4889 14.2222ZM18.4889 8.53333C18.4889 8.81493 18.405 9.08942 18.2485 9.32409C18.0935 9.55733 17.8702 9.73938 17.6114 9.84747C17.3511 9.95555 17.0652 9.98258 16.7893 9.92853C16.5134 9.87307 16.2603 9.73796 16.0612 9.53884C15.862 9.33973 15.7269 9.08658 15.6715 8.81067C15.6174 8.53475 15.6444 8.24889 15.7525 7.98862C15.8606 7.72978 16.0427 7.50649 16.2759 7.35147C16.5106 7.19502 16.7851 7.11111 17.0667 7.11111C17.4436 7.11111 17.8062 7.26044 18.0722 7.52782C18.3396 7.79378 18.4889 8.15644 18.4889 8.53333ZM9.95555 19.9111C9.95555 20.1927 9.87164 20.4672 9.7152 20.7019C9.56018 20.9351 9.33689 21.1172 9.07804 21.2252C8.81778 21.3333 8.53191 21.3604 8.256 21.3063C7.98009 21.2508 7.72693 21.1157 7.52782 20.9166C7.32871 20.7175 7.1936 20.4644 7.13813 20.1884C7.08409 19.9125 7.11111 19.6267 7.2192 19.3664C7.32729 19.1076 7.50933 18.8843 7.74258 18.7292C7.97724 18.5728 8.25173 18.4889 8.53333 18.4889C8.91022 18.4889 9.27289 18.6382 9.53884 18.9056C9.80622 19.1716 9.95555 19.5342 9.95555 19.9111ZM9.95555 14.2222C9.95555 14.5038 9.87164 14.7783 9.7152 15.013C9.56018 15.2462 9.33689 15.4283 9.07804 15.5364C8.81778 15.6444 8.53191 15.6715 8.256 15.6174C7.98009 15.562 7.72693 15.4268 7.52782 15.2277C7.32871 15.0286 7.1936 14.7755 7.13813 14.4996C7.08409 14.2236 7.11111 13.9378 7.2192 13.6775C7.32729 13.4187 7.50933 13.1954 7.74258 13.0404C7.97724 12.8839 8.25173 12.8 8.53333 12.8C8.91022 12.8 9.27289 12.9493 9.53884 13.2167C9.80622 13.4827 9.95555 13.8453 9.95555 14.2222ZM9.95555 8.53333C9.95555 8.81493 9.87164 9.08942 9.7152 9.32409C9.56018 9.55733 9.33689 9.73938 9.07804 9.84747C8.81778 9.95555 8.53191 9.98258 8.256 9.92853C7.98009 9.87307 7.72693 9.73796 7.52782 9.53884C7.32871 9.33973 7.1936 9.08658 7.13813 8.81067C7.08409 8.53475 7.11111 8.24889 7.2192 7.98862C7.32729 7.72978 7.50933 7.50649 7.74258 7.35147C7.97724 7.19502 8.25173 7.11111 8.53333 7.11111C8.91022 7.11111 9.27289 7.26044 9.53884 7.52782C9.80622 7.79378 9.95555 8.15644 9.95555 8.53333Z" fill="#0F4238"/>
</svg>
