<svg width="26" height="29" viewBox="0 0 26 29" fill="none" xmlns="http://www.w3.org/2000/svg">
<path d="M1.15172 23.4896C1.48904 25.7444 3.5642 27.511 6.08949 27.6154C8.21441 27.7034 10.373 27.7492 12.75 27.7492C15.127 27.7492 17.2856 27.7034 19.4105 27.6154C21.9358 27.511 24.011 25.7444 24.3483 23.4896C24.5684 22.018 24.75 20.51 24.75 18.9742C24.75 17.4384 24.5684 15.9304 24.3483 14.4588C24.011 12.204 21.9358 10.4375 19.4105 10.333C17.2856 10.2451 15.127 10.1992 12.75 10.1992C10.373 10.1992 8.21441 10.2451 6.08949 10.333C3.56419 10.4375 1.48904 12.204 1.15172 14.4588C0.931569 15.9304 0.75 17.4384 0.75 18.9742C0.75 20.51 0.931569 22.018 1.15172 23.4896Z" stroke="black" stroke-width="1.5"/>
<path d="M6 10.2V6.825C6 3.46987 9.02208 0.75 12.75 0.75C16.4779 0.75 19.5 3.46987 19.5 6.825V10.2" stroke="black" stroke-width="1.5" stroke-linecap="round" stroke-linejoin="round"/>
<path d="M6.75 21.675V19.65C6.75 16.6677 9.43629 14.25 12.75 14.25C16.0637 14.25 18.75 16.6677 18.75 19.65V21.675" stroke="black" stroke-width="1.5" stroke-linecap="round"/>
<path d="M10.5 23.7V19.65C10.5 18.5316 11.5074 17.625 12.75 17.625C13.9926 17.625 15 18.5316 15 19.65M15 23.7V22.35" stroke="black" stroke-width="1.5" stroke-linecap="round"/>
</svg>
