<svg width="14" height="14" viewBox="0 0 14 14" fill="none" xmlns="http://www.w3.org/2000/svg">
<path d="M4.66634 2.33464H4.19979C3.54639 2.33464 3.21945 2.33464 2.96989 2.46179C2.75037 2.57365 2.57202 2.75199 2.46017 2.97152C2.33301 3.22108 2.33301 3.54802 2.33301 4.20142V4.66797M4.66634 2.33464H9.33301M4.66634 2.33464V1.16797M9.33301 2.33464H9.79979C10.4532 2.33464 10.7794 2.33464 11.029 2.46179C11.2485 2.57365 11.4275 2.75199 11.5393 2.97152C11.6663 3.22084 11.6663 3.54738 11.6663 4.1995V4.66797M9.33301 2.33464V1.16797M2.33301 4.66797V9.80142C2.33301 10.4548 2.33301 10.7813 2.46017 11.0309C2.57202 11.2504 2.75037 11.4291 2.96989 11.5409C3.21921 11.668 3.54575 11.668 4.19787 11.668H9.80148C10.4536 11.668 10.7797 11.668 11.029 11.5409C11.2485 11.4291 11.4275 11.2504 11.5393 11.0309C11.6663 10.7816 11.6663 10.4555 11.6663 9.80339V4.66797M2.33301 4.66797H11.6663M9.33301 9.33464H9.33417L9.33415 9.3358L9.33301 9.33577V9.33464ZM6.99967 9.33464H7.00084L7.00081 9.3358L6.99967 9.33577V9.33464ZM4.66634 9.33464H4.66751L4.66748 9.3358L4.66634 9.33577V9.33464ZM9.33415 7.0013V7.00247L9.33301 7.00244V7.0013H9.33415ZM6.99967 7.0013H7.00084L7.00081 7.00247L6.99967 7.00244V7.0013ZM4.66634 7.0013H4.66751L4.66748 7.00247L4.66634 7.00244V7.0013Z" stroke="#1B4F44" stroke-width="1.2" stroke-linecap="round" stroke-linejoin="round"/>
</svg>
