<svg width="39" height="40" viewBox="0 0 39 40" fill="none" xmlns="http://www.w3.org/2000/svg">
<rect width="39" height="40" rx="12" fill="#D9D9D9" fill-opacity="0.54"/>
<path d="M9 20C9 17.2089 9 15.8133 9.34448 14.6777C10.1201 12.1209 12.1209 10.1201 14.6777 9.34448C15.8133 9 17.2089 9 20 9C22.7911 9 24.1867 9 25.3223 9.34448C27.8791 10.1201 29.8799 12.1209 30.6555 14.6777C31 15.8133 31 17.2089 31 20C31 22.7911 31 24.1867 30.6555 25.3223C29.8799 27.8791 27.8791 29.8799 25.3223 30.6555C24.1867 31 22.7911 31 20 31C17.2089 31 15.8133 31 14.6777 30.6555C12.1209 29.8799 10.1201 27.8791 9.34448 25.3223C9 24.1867 9 22.7911 9 20Z" fill="white" fill-opacity="0.04"/>
<path d="M20 27C23.866 27 27 23.866 27 20C27 16.134 23.866 13 20 13C16.134 13 13 16.134 13 20C13 23.866 16.134 27 20 27Z" stroke="black" stroke-linecap="round" stroke-linejoin="round"/>
<path d="M20 17.3076V19.9999L22.7354 23.1876" stroke="black" stroke-linecap="round" stroke-linejoin="round"/>
</svg>
